#!OML:ASF H:\LiuWeirdWalks\Patient Classification 1\Patient 1\Session 1\male.ASF
:FULLY-SPECIFIED
:DEGREES
231
root 1.64347 17.5074 -30.8724 4.27218 4.7105 -3.4137
lowerback 12.3246 3.83148 -0.657146
upperback -0.80224 4.87451 -1.63109
thorax -7.6738 2.35991 -2.26991
lowerneck -17.8079 -2.8436 14.2354
upperneck 18.0788 -6.77403 -4.6276
head 7.90759 -2.71172 -4.63362
rclavicle -3.37934e-014 3.18055e-014
rhumerus -39.9494 -20.4599 -76.9844
rradius 35.2378
rwrist -7.34411
rhand -15.202 -4.18726
rfingers 7.12502
rthumb 10.9699 -33.8807
lclavicle -3.37934e-014 3.18055e-014
lhumerus -35.4371 -18.4634 87.1357
lradius 36.3308
lwrist 8.35763
lhand -13.8372 -4.31406
lfingers 7.12502
lthumb 12.286 25.305
rfemur -26.4352 -11.4591 18.0189
rtibia 72.2469
rfoot 4.1964 -14.2983
rtoes -4.82838
lfemur -14.3314 -0.0338005 -23.8395
ltibia 36.3802
lfoot -18.5395 17.4006
ltoes -8.86085
232
root 1.64641 17.4954 -30.8541 4.41738 4.68042 -3.49828
lowerback 12.4598 3.83879 -0.571727
upperback -0.837452 4.89441 -1.62835
thorax -7.78082 2.36407 -2.33094
lowerneck -17.901 -2.84223 14.2432
upperneck 18.0429 -6.79581 -4.5912
head 7.91127 -2.71942 -4.6263
rclavicle -3.53837e-014 1.03368e-014
rhumerus -39.8301 -20.4686 -77.0235
rradius 35.2704
rwrist -7.36464
rhand -15.1893 -4.1615
rfingers 7.12502
rthumb 10.9822 -33.8542
lclavicle -3.53837e-014 1.03368e-014
lhumerus -35.4078 -18.6071 87.2422
lradius 36.5578
lwrist 8.43309
lhand -13.8203 -4.34365
lfingers 7.12502
lthumb 12.3024 25.2745
rfemur -26.478 -11.4928 18.1449
rtibia 72.3398
rfoot 3.83553 -14.2668
rtoes -4.95908
lfemur -14.739 0.132909 -23.749
ltibia 36.9373
lfoot -18.6142 17.3673
ltoes -9.29962
233
root 1.64902 17.4832 -30.8366 4.5777 4.6567 -3.63208
lowerback 12.6127 3.8398 -0.434663
upperback -0.890059 4.91452 -1.61587
thorax -7.91311 2.36576 -2.41292
lowerneck -17.9729 -2.83464 14.2673
upperneck 17.9749 -6.8066 -4.56722
head 7.90052 -2.72387 -4.62268
rclavicle 3.27995e-014 3.18055e-015
rhumerus -39.7359 -20.4518 -77.0751
rradius 35.3441
rwrist -7.41612
rhand -15.2018 -4.19509
rfingers 7.12502
rthumb 10.9701 -33.8885
lclavicle 3.27995e-014 3.18055e-015
lhumerus -35.3987 -18.7636 87.3456
lradius 36.8024
lwrist 8.51347
lhand -13.8116 -4.40384
lfingers 7.12502
lthumb 12.3107 25.2138
rfemur -26.5363 -11.5179 18.3332
rtibia 72.4381
rfoot 3.45691 -14.2189
rtoes -5.20334
lfemur -15.1985 0.31936 -23.6025
ltibia 37.5404
lfoot -18.7041 17.3091
ltoes -9.70347
234
root 1.6516 17.4707 -30.8199 4.74235 4.65883 -3.79922
lowerback 12.7649 3.80477 -0.271419
upperback -0.912022 4.89372 -1.57535
thorax -8.01361 2.34746 -2.47029
lowerneck -18.1191 -2.77617 14.2872
upperneck 17.9153 -6.75448 -4.56675
head 7.91095 -2.70069 -4.62333
rclavicle 1.70955e-014 8.74653e-015
rhumerus -39.5471 -20.3425 -77.1765
rradius 35.4397
rwrist -7.49144
rhand -15.2155 -4.23551
rfingers 7.12502
rthumb 10.9569 -33.9296
lclavicle 1.70955e-014 8.74653e-015
lhumerus -35.3275 -18.8378 87.4222
lradius 37.0476
lwrist 8.59081
lhand -13.8239 -4.45345
lfingers 7.12502
lthumb 12.2989 25.1649
rfemur -26.59 -11.5622 18.5591
rtibia 72.5444
rfoot 3.07288 -14.1623
rtoes -5.49817
lfemur -15.6883 0.500753 -23.419
ltibia 38.1781
lfoot -18.8054 17.2307
ltoes -10.0779
235
root 1.65421 17.4581 -30.8035 4.91508 4.68682 -3.98053
lowerback 12.9284 3.77637 -0.0796635
upperback -0.950331 4.88603 -1.54354
thorax -8.13468 2.33347 -2.55699
lowerneck -18.2475 -2.7604 14.2952
upperneck 17.88 -6.75882 -4.54841
head 7.92179 -2.702 -4.6217
rclavicle -5.78463e-014 2.38542e-015
rhumerus -39.3992 -20.2789 -77.261
rradius 35.5486
rwrist -7.56492
rhand -15.2421 -4.26825
rfingers 7.12502
rthumb 10.9313 -33.9637
lclavicle -5.78463e-014 2.38542e-015
lhumerus -35.2844 -19.004 87.5167
lradius 37.3063
lwrist 8.70512
lhand -13.848 -4.50721
lfingers 7.12502
lthumb 12.2757 25.1125
rfemur -26.6377 -11.634 18.8002
rtibia 72.6592
rfoot 2.68684 -14.1193
rtoes -5.81955
lfemur -16.2025 0.678017 -23.2204
ltibia 38.8354
lfoot -18.9111 17.1344
ltoes -10.4462
236
root 1.65715 17.4449 -30.7863 5.08409 4.71217 -4.16448
lowerback 13.0774 3.75569 0.114259
upperback -0.974669 4.88993 -1.51267
thorax -8.23191 2.32524 -2.6462
lowerneck -18.37 -2.75587 14.3091
upperneck 17.8219 -6.77766 -4.53409
head 7.92205 -2.71148 -4.62259
rclavicle -3.16068e-014 -1.51076e-014
rhumerus -39.2416 -20.2187 -77.3501
rradius 35.6775
rwrist -7.64168
rhand -15.2695 -4.26283
rfingers 7.12502
rthumb 10.9048 -33.9597
lclavicle -3.16068e-014 -1.51076e-014
lhumerus -35.2195 -19.215 87.616
lradius 37.5662
lwrist 8.83563
lhand -13.9085 -4.59318
lfingers 7.12502
lthumb 12.2173 25.03
rfemur -26.6631 -11.7114 19.0361
rtibia 72.7839
rfoot 2.30343 -14.1043
rtoes -6.14703
lfemur -16.7097 0.869269 -23.0222
ltibia 39.4926
lfoot -19.0266 17.0284
ltoes -10.8144
237
root 1.66052 17.4312 -30.7682 5.2488 4.72221 -4.34012
lowerback 13.0806 3.52896 -0.0257222
upperback -1.03148 4.59864 -1.11871
thorax -8.35072 2.19738 -2.09649
lowerneck -18.094 -2.41887 14.1461
upperneck 17.6773 -6.1423 -4.94111
head 7.87492 -2.47179 -4.65995
rclavicle 2.83268e-014 -1.59028e-015
rhumerus -38.9754 -19.0262 -77.3452
rradius 35.7506
rwrist -7.8128
rhand -15.2931 -4.25016
rfingers 7.12502
rthumb 10.882 -33.9482
lclavicle 2.83268e-014 -1.59028e-015
lhumerus -35.4326 -18.2505 87.9163
lradius 37.8274
lwrist 8.78434
lhand -13.9877 -4.71076
lfingers 7.12502
lthumb 12.141 24.917
rfemur -26.6677 -11.7874 19.2522
rtibia 72.9194
rfoot 1.92709 -14.1319
rtoes -6.48054
lfemur -17.1992 1.08325 -22.8383
ltibia 40.1332
lfoot -19.1515 16.9185
ltoes -11.1778
238
root 1.66424 17.4175 -30.7485 5.40817 4.7188 -4.48797
lowerback 13.1062 3.37976 -0.110497
upperback -1.07999 4.41016 -0.837385
thorax -8.45248 2.11517 -1.71752
lowerneck -17.944 -2.1421 14.1478
upperneck 17.5709 -5.65945 -5.33354
head 7.84585 -2.28891 -4.73856
rclavicle 2.38542e-015 -7.95139e-015
rhumerus -38.7613 -18.1638 -77.3511
rradius 35.838
rwrist -7.95064
rhand -15.3124 -4.20556
rfingers 7.12502
rthumb 10.8635 -33.9046
lclavicle 2.38542e-015 -7.95139e-015
lhumerus -35.5843 -17.6773 88.174
lradius 38.0989
lwrist 8.79601
lhand -14.0639 -4.77665
lfingers 7.12502
lthumb 12.0675 24.8554
rfemur -26.643 -11.8629 19.4257
rtibia 73.0645
rfoot 1.5583 -14.2067
rtoes -6.75853
lfemur -17.6567 1.31652 -22.6888
ltibia 40.7438
lfoot -19.2959 16.8052
ltoes -11.5193
239
root 1.6677 17.4042 -30.7281 5.57585 4.71006 -4.60627
lowerback 13.1556 3.33003 -0.138046
upperback -1.18897 4.35327 -0.677856
thorax -8.61507 2.09039 -1.52983
lowerneck -17.6069 -2.07517 14.1185
upperneck 17.3785 -5.46774 -5.51241
head 7.73587 -2.22668 -4.75891
rclavicle -2.3556e-014 7.95139e-015
rhumerus -38.7878 -17.6433 -77.3136
rradius 35.9997
rwrist -8.09829
rhand -15.328 -4.18138
rfingers 7.12502
rthumb 10.8484 -33.8812
lclavicle -2.3556e-014 7.95139e-015
lhumerus -35.8218 -17.5671 88.4524
lradius 38.3855
lwrist 8.87841
lhand -14.1463 -4.8349
lfingers 7.12502
lthumb 11.988 24.8018
rfemur -26.6083 -11.9379 19.5607
rtibia 73.2185
rfoot 1.20442 -14.3328
rtoes -6.92966
lfemur -18.0974 1.5511 -22.5739
ltibia 41.3184
lfoot -19.451 16.6965
ltoes -11.8259
240
root 1.67035 17.3912 -30.7077 5.7551 4.71249 -4.70066
lowerback 13.2596 3.39757 -0.0393506
upperback -1.33726 4.45747 -0.698257
thorax -8.82457 2.13191 -1.64175
lowerneck -17.2794 -2.17467 14.2329
upperneck 17.1764 -5.57025 -5.55235
head 7.5962 -2.28073 -4.78231
rclavicle -5.12864e-014 -3.02153e-014
rhumerus -39.0109 -17.6386 -77.2745
rradius 36.2367
rwrist -8.24689
rhand -15.3401 -4.18416
rfingers 7.12502
rthumb 10.8367 -33.8846
lclavicle -5.12864e-014 -3.02153e-014
lhumerus -36.0578 -18.0653 88.6919
lradius 38.6718
lwrist 8.97032
lhand -14.221 -4.86564
lfingers 7.12502
lthumb 11.916 24.7752
rfemur -26.5709 -12.0195 19.6706
rtibia 73.378
rfoot 0.874099 -14.486
rtoes -7.04861
lfemur -18.5305 1.77515 -22.4838
ltibia 41.8562
lfoot -19.5998 16.5852
ltoes -12.0962
241
root 1.6714 17.379 -30.6882 5.95187 4.73615 -4.77933
lowerback 13.4433 3.59786 0.21165
upperback -1.47063 4.74448 -0.93143
thorax -9.02813 2.24727 -2.1087
lowerneck -17.1443 -2.51533 14.3734
upperneck 16.9887 -6.09844 -5.27973
head 7.46282 -2.50461 -4.74851
rclavicle -5.91384e-014 -1.51076e-014
rhumerus -39.301 -18.3015 -77.2726
rradius 36.5275
rwrist -8.34647
rhand -15.3713 -4.21817
rfingers 7.12502
rthumb 10.8066 -33.9202
lclavicle -5.91384e-014 -1.51076e-014
lhumerus -36.1316 -19.275 88.8366
lradius 38.9412
lwrist 9.13342
lhand -14.308 -4.91669
lfingers 7.12502
lthumb 11.8321 24.729
rfemur -26.5381 -12.1047 19.7724
rtibia 73.5356
rfoot 0.564885 -14.6722
rtoes -7.09256
lfemur -18.9682 1.98865 -22.4062
ltibia 42.3616
lfoot -19.7423 16.4657
ltoes -12.3233
242
root 1.67088 17.3676 -30.6688 6.15238 4.79901 -4.86857
lowerback 13.6678 3.82015 0.547836
upperback -1.52951 5.06722 -1.25325
thorax -9.15191 2.3733 -2.72669
lowerneck -17.287 -2.91381 14.5142
upperneck 16.8578 -6.78159 -4.83857
head 7.39 -2.7838 -4.68195
rclavicle -1.27222e-014 5.56597e-015
rhumerus -39.4368 -19.2407 -77.3624
rradius 36.8193
rwrist -8.38765
rhand -15.3958 -4.23423
rfingers 7.12502
rthumb 10.783 -33.9374
lclavicle -1.27222e-014 5.56597e-015
lhumerus -35.9633 -20.7218 88.8461
lradius 39.1819
lwrist 9.30077
lhand -14.3878 -4.97155
lfingers 7.12502
lthumb 11.7551 24.6786
rfemur -26.4892 -12.2053 19.8955
rtibia 73.6789
rfoot 0.301749 -14.8759
rtoes -7.0859
lfemur -19.3987 2.18763 -22.3101
ltibia 42.8415
lfoot -19.8697 16.3302
ltoes -12.5108
